<svg width="143" height="43" viewBox="0 0 143 43" fill="none" xmlns="http://www.w3.org/2000/svg">
<path d="M23.8 41.4C19.96 41.4 16.9467 40.32 14.76 38.16C12.6 36 11.52 32.88 11.52 28.8V13H16.72V28.6C16.72 31.48 17.3333 33.5733 18.56 34.88C19.8133 36.1867 21.5733 36.84 23.84 36.84C26.1067 36.84 27.8533 36.1867 29.08 34.88C30.3067 33.5733 30.92 31.48 30.92 28.6V13H36.04V28.8C36.04 32.88 34.9467 36 32.76 38.16C30.6 40.32 27.6133 41.4 23.8 41.4ZM52.7625 22.28H47.2425V16.96H44.1225V22.28H40.0425V24.92H44.1225V35.2C44.1225 39.08 44.8425 41.48 49.2825 41.48C50.4425 41.48 51.8425 41.28 52.9225 40.8L52.8025 37.96C51.9625 38.4 50.9625 38.6 50.0425 38.6C47.2825 38.6 47.2425 36.68 47.2425 34.28V24.92H52.7625V22.28ZM56.585 41H59.705V31.88C59.705 27.6 61.385 24.92 65.185 24.92C65.745 24.92 66.345 25 66.865 25.16L67.065 22C66.625 21.84 66.185 21.8 65.785 21.8C62.705 21.8 60.385 23.52 59.545 25.36H59.465C59.465 24.32 59.385 23.28 59.385 22.28H56.425C56.425 23.52 56.585 25 56.585 26.72V41ZM72.3675 26.72C73.8475 25.36 75.9275 24.68 77.9275 24.68C80.8475 24.68 82.5675 26.08 82.5675 28.8V29.36H81.3675C76.7675 29.36 69.5675 29.72 69.5675 35.92C69.5675 39.56 72.7275 41.48 76.5275 41.48C79.3675 41.48 81.4475 40.12 82.6875 38.2H82.7675C82.7675 39 82.7675 40.16 82.9675 41H85.9675C85.8075 40.04 85.6875 38.84 85.6875 37.76V29.72C85.6875 24.44 83.3675 21.8 77.8475 21.8C75.1275 21.8 72.3275 22.72 70.4075 24.68L72.3675 26.72ZM82.5675 32V33.2C82.4875 36.24 80.6475 38.84 77.0475 38.84C74.6875 38.84 72.9275 37.96 72.9275 35.6C72.9275 33.08 75.4875 32 79.4475 32H82.5675ZM107.31 22.28H103.95L98.3897 36.96H98.3097L92.4697 22.28H88.8297L96.4697 41H99.9097L107.31 22.28ZM125.047 35.76C123.567 37.64 121.767 38.6 119.087 38.6C115.687 38.6 113.207 35.84 112.967 32.6H128.087V31.6C128.087 25.4 124.487 21.8 119.207 21.8C113.687 21.8 109.607 25.84 109.607 31.64C109.607 37.08 113.207 41.48 119.087 41.48C122.567 41.48 125.207 40.44 127.407 37.6L125.047 35.76ZM112.967 29.96C113.367 26.8 115.647 24.68 119.087 24.68C122.527 24.68 124.607 26.8 124.727 29.96H112.967ZM133.193 41H136.313V10.76H133.193V41Z" fill="white"/>
</svg>
